<?xml version="1.0" encoding="iso-8859-1"?>
<!-- Generator: Adobe Illustrator 16.0.0, SVG Export Plug-In . SVG Version: 6.00 Build 0)  -->
<!DOCTYPE svg PUBLIC "-//W3C//DTD SVG 1.1//EN" "http://www.w3.org/Graphics/SVG/1.1/DTD/svg11.dtd">
<svg version="1.1" id="Capa_1" xmlns="http://www.w3.org/2000/svg" xmlns:xlink="http://www.w3.org/1999/xlink" x="0px" y="0px"
	 width="372.759px" height="372.758px" viewBox="0 0 372.759 372.758" style="enable-background:new 0 0 372.759 372.758;"
	 xml:space="preserve" fill="#FFFFFF">
<g>
	<path d="M66.042,298.898c25.702-2.65,46.685-65.158,45.459-83.048c1.483-1.472,23.062,14.726,21.825-10.218
		c-12.717,12.494-18.38-4.741-13.721-12.319c4.636-7.579,8.15-6.971,10.72-11.619c2.592-4.642,3.76-31.75,12.856-32.731
		c13.207,16.833,22.7,12.255,18.835,2.989c-5.278,10.316-11.607-7.059-4.846-11.887c8.641-5.979,17.877-4.542,26.542,12.004
		c2.184,6.685,0.362,25.695,1.541,29.8c1.168,4.11,15.402,19.629,15.402,25.702c0,6.071-8.933,2.312-9.412,4.227
		c-0.479,1.903-1.471,4.25-0.093,6.166c1.576,2.172,5.896,2.756,5.896,4.576c0,3.434-5.103,5.979-5.103,5.979
		s4.134,2.825,4.052,6.002c-0.082,3.165-7.462,0.63-7.578,3.503c11.034,35.405-28.75,10.977-41.723,17.621
		c-12.962,6.645-42.586,29.834-27.091,59.424c5.71,10.896,29.123-3.992,49.861-0.91c35.568,5.267,47.094,43.859,105.28,4.134
		c45.086-26.741,70.646,2.312,79.896-32.311c9.225-34.622-45.717-56.786-28.166-84.951c9.786-15.706,48.483-32.328,46.184-86.352
		c-4.986-37.378-41.57-40.164-38.791-25.397c16.16,2.761,8.325,21.06-1.846,20.318c-25.397-1.845,3.702-40.164-45.716-66.962
		c-49.405-26.775-66.069,46.516-114.097,34.973c-7.264-1.875-16.943-9.768-26.262-9.575c-11.456,0.251-22.619,8.693-30.933,6.469
		c-15.122-4.063-30.489-18.508-42.038-14.806c-13.872,4.449-13.557,32.106-22.63,42.02c-17.598,19.214-37.986,24.761-37.857,36.935
		c0.117,11.636,23.086,26.787,18.462,44.793c-4.613,18.006-31.809,13.942-30.933,20.762c1.482,11.77,19.465,22.863,21.229,25.876
		c1.764,2.989-11.98,11.595-9.692,23.085c2.043,14.281,39.714,27.711,6.924,40.625C29.108,303.042,40.353,301.525,66.042,298.898z"
		/>
</g>
<g>
</g>
<g>
</g>
<g>
</g>
<g>
</g>
<g>
</g>
<g>
</g>
<g>
</g>
<g>
</g>
<g>
</g>
<g>
</g>
<g>
</g>
<g>
</g>
<g>
</g>
<g>
</g>
<g>
</g>
</svg>
