<?xml version="1.0" encoding="iso-8859-1"?>
<!-- Generator: Adobe Illustrator 19.0.0, SVG Export Plug-In . SVG Version: 6.00 Build 0)  -->
<svg version="1.1" id="Layer_1" xmlns="http://www.w3.org/2000/svg" xmlns:xlink="http://www.w3.org/1999/xlink" x="0px" y="0px"
	 viewBox="0 0 512 512" style="enable-background:new 0 0 512 512;" xml:space="preserve" fill="#FFFFFF">
<g>
	<g>
		<path d="M361.971,129.91c-10.949-10.803-24.306-18.307-38.84-22.036V49.862C323.131,22.368,300.764,0,273.271,0H238.73
			c-27.493,0-49.861,22.368-49.861,49.861v58.012c-14.533,3.729-27.891,11.233-38.84,22.036
			c-16.236,16.022-25.548,38.295-25.548,61.106V512h263.037V191.016C387.518,168.205,378.207,145.932,361.971,129.91z
			 M222.259,49.861c0.001-9.081,7.388-16.47,16.47-16.47h34.541c9.081,0,16.47,7.388,16.47,16.47v55.304h-67.48V49.861z
			 M157.873,191.016c0-13.939,5.69-27.549,15.61-37.339c9.88-9.75,22.968-15.121,36.848-15.121h91.335
			c13.882,0,26.968,5.37,36.848,15.121c9.921,9.79,15.61,23.399,15.61,37.339v19.315H157.873V191.016z M354.127,478.609H157.873
			v-71.773h196.254V478.609z M354.127,373.444H157.873V243.722h196.254V373.444z"/>
	</g>
</g>
<g>
</g>
<g>
</g>
<g>
</g>
<g>
</g>
<g>
</g>
<g>
</g>
<g>
</g>
<g>
</g>
<g>
</g>
<g>
</g>
<g>
</g>
<g>
</g>
<g>
</g>
<g>
</g>
<g>
</g>
</svg>
